<?xml version="1.0" encoding="UTF-8"?>
<svg width="658px" height="638px" viewBox="0 0 658 638" version="1.1" xmlns="http://www.w3.org/2000/svg" xmlns:xlink="http://www.w3.org/1999/xlink">
    <!-- Generator: Sketch 52.6 (67491) - http://www.bohemiancoding.com/sketch -->
    <title>Icon (black)</title>
    <desc>Created with Sketch.</desc>
    <defs>
        <path d="M305,524 C257.503512,524 219,472.065031 219,408 C219,343.934969 257.503512,292 305,292 C352.496488,292 391,343.934969 391,408 C391,472.065031 352.496488,524 305,524 Z M304.873206,522.799743 C343.809281,522.799743 375.373206,476.685072 375.373206,419.799743 C375.373206,362.914413 343.809281,316.799743 304.873206,316.799743 C265.937131,316.799743 234.373206,362.914413 234.373206,419.799743 C234.373206,476.685072 265.937131,522.799743 304.873206,522.799743 Z" id="path-1"></path>
        <filter x="-1.5%" y="-0.6%" width="102.9%" height="102.6%" filterUnits="objectBoundingBox" id="filter-2">
            <feOffset dx="0" dy="2" in="SourceAlpha" result="shadowOffsetOuter1"></feOffset>
            <feGaussianBlur stdDeviation="0.5" in="shadowOffsetOuter1" result="shadowBlurOuter1"></feGaussianBlur>
            <feColorMatrix values="0 0 0 0 0   0 0 0 0 0   0 0 0 0 0  0 0 0 0.5 0" type="matrix" in="shadowBlurOuter1"></feColorMatrix>
        </filter>
        <path d="M314,562 C243.859837,562 187,491.484848 187,404.5 C187,317.515152 243.859837,247 314,247 C384.140163,247 441,317.515152 441,404.5 C441,491.484848 384.140163,562 314,562 Z M311.628201,561.871054 C368.51353,561.871054 414.628201,499.414777 414.628201,422.371054 C414.628201,345.327331 368.51353,282.871054 311.628201,282.871054 C254.742871,282.871054 208.628201,345.327331 208.628201,422.371054 C208.628201,499.414777 254.742871,561.871054 311.628201,561.871054 Z" id="path-3"></path>
        <filter x="-1.0%" y="-0.5%" width="102.0%" height="101.9%" filterUnits="objectBoundingBox" id="filter-4">
            <feOffset dx="0" dy="2" in="SourceAlpha" result="shadowOffsetOuter1"></feOffset>
            <feGaussianBlur stdDeviation="0.5" in="shadowOffsetOuter1" result="shadowBlurOuter1"></feGaussianBlur>
            <feColorMatrix values="0 0 0 0 0   0 0 0 0 0   0 0 0 0 0  0 0 0 0.5 0" type="matrix" in="shadowBlurOuter1"></feColorMatrix>
        </filter>
        <path d="M323.5,599 C223.812603,599 143,506.546801 143,392.5 C143,278.453199 223.812603,186 323.5,186 C423.187397,186 504,278.453199 504,392.5 C504,506.546801 423.187397,599 323.5,599 Z M323.660389,598.548303 C405.674675,598.548303 472.160389,516.616412 472.160389,415.548303 C472.160389,314.480194 405.674675,232.548303 323.660389,232.548303 C241.646104,232.548303 175.160389,314.480194 175.160389,415.548303 C175.160389,516.616412 241.646104,598.548303 323.660389,598.548303 Z" id="path-5"></path>
        <filter x="-0.7%" y="-0.4%" width="101.4%" height="101.5%" filterUnits="objectBoundingBox" id="filter-6">
            <feOffset dx="0" dy="2" in="SourceAlpha" result="shadowOffsetOuter1"></feOffset>
            <feGaussianBlur stdDeviation="0.5" in="shadowOffsetOuter1" result="shadowBlurOuter1"></feGaussianBlur>
            <feColorMatrix values="0 0 0 0 0   0 0 0 0 0   0 0 0 0 0  0 0 0 0.5 0" type="matrix" in="shadowBlurOuter1"></feColorMatrix>
        </filter>
        <path d="M297.957154,632.498636 C175.979355,614.641963 82.0477042,503.701928 82.0477042,369.509273 C82.0477042,222.877672 194.200374,104.009273 332.547704,104.009273 C470.895034,104.009273 583.047704,222.877672 583.047704,369.509273 C583.047704,512.208706 476.829498,628.614004 343.619567,634.754583 C450.614011,626.542346 535.181508,524.482673 535.181508,399.787729 C535.181508,269.724671 443.176024,164.287729 329.681508,164.287729 C216.186992,164.287729 124.181508,269.724671 124.181508,399.787729 C124.181508,517.486568 199.525763,615.018821 297.957199,632.498644 Z" id="path-7"></path>
        <filter x="-0.5%" y="-0.3%" width="101.0%" height="101.1%" filterUnits="objectBoundingBox" id="filter-8">
            <feOffset dx="0" dy="2" in="SourceAlpha" result="shadowOffsetOuter1"></feOffset>
            <feGaussianBlur stdDeviation="0.5" in="shadowOffsetOuter1" result="shadowBlurOuter1"></feGaussianBlur>
            <feColorMatrix values="0 0 0 0 0   0 0 0 0 0   0 0 0 0 0  0 0 0 0.5 0" type="matrix" in="shadowBlurOuter1"></feColorMatrix>
        </filter>
        <path d="M203.893522,622.027851 C90.2359803,571.401401 11,457.453978 11,325 C11,145.507456 156.507456,0 336,0 C515.492544,0 661,145.507456 661,325 C661,457.453978 581.76402,571.401401 468.106478,622.027851 C548.106547,572.370456 602,478.999509 602,372 C602,212.941992 482.907743,84 336,84 C189.092257,84 70,212.941992 70,372 C70,478.999509 123.893453,572.370456 203.893531,622.027854 Z" id="path-9"></path>
        <filter x="-1.2%" y="-0.7%" width="102.3%" height="103.3%" filterUnits="objectBoundingBox" id="filter-10">
            <feMorphology radius="0.5" operator="dilate" in="SourceAlpha" result="shadowSpreadOuter1"></feMorphology>
            <feOffset dx="0" dy="3" in="shadowSpreadOuter1" result="shadowOffsetOuter1"></feOffset>
            <feGaussianBlur stdDeviation="1.5" in="shadowOffsetOuter1" result="shadowBlurOuter1"></feGaussianBlur>
            <feColorMatrix values="0 0 0 0 0   0 0 0 0 0   0 0 0 0 0  0 0 0 0.5 0" type="matrix" in="shadowBlurOuter1"></feColorMatrix>
        </filter>
    </defs>
    <g id="Official" stroke="none" stroke-width="1" fill="none" fill-rule="evenodd">
        <g id="Icon-(black)" transform="translate(-171.000000, -164.000000)">
            <g transform="translate(164.000000, 165.000000)">
                <g id="Inner-4" transform="translate(305.000000, 408.000000) rotate(60.000000) translate(-305.000000, -408.000000) ">
                    <use fill="black" fill-opacity="1" filter="url(#filter-2)" xlink:href="#path-1"></use>
                    <use fill="#000000" fill-rule="evenodd" xlink:href="#path-1"></use>
                </g>
                <g id="Inner-3" transform="translate(314.000000, 404.500000) rotate(54.000000) translate(-314.000000, -404.500000) ">
                    <use fill="black" fill-opacity="1" filter="url(#filter-4)" xlink:href="#path-3"></use>
                    <use fill="#000000" fill-rule="evenodd" xlink:href="#path-3"></use>
                </g>
                <g id="Inner-2" transform="translate(323.500000, 392.500000) rotate(41.000000) translate(-323.500000, -392.500000) ">
                    <use fill="black" fill-opacity="1" filter="url(#filter-6)" xlink:href="#path-5"></use>
                    <use fill="#000000" fill-rule="evenodd" xlink:href="#path-5"></use>
                </g>
                <g id="Inner-1" transform="translate(332.547704, 369.381928) rotate(22.000000) translate(-332.547704, -369.381928) ">
                    <use fill="black" fill-opacity="1" filter="url(#filter-8)" xlink:href="#path-7"></use>
                    <use fill="#000000" fill-rule="evenodd" xlink:href="#path-7"></use>
                </g>
                <g id="Outer">
                    <use fill="black" fill-opacity="1" filter="url(#filter-10)" xlink:href="#path-9"></use>
                    <use fill="#000000" fill-rule="evenodd" xlink:href="#path-9"></use>
                </g>
            </g>
        </g>
    </g>
</svg>