<?xml version="1.0" encoding="UTF-8"?>
<svg width="1253px" height="633px" viewBox="0 0 1253 633" version="1.1" xmlns="http://www.w3.org/2000/svg" xmlns:xlink="http://www.w3.org/1999/xlink">
    <!-- Generator: Sketch 52.6 (67491) - http://www.bohemiancoding.com/sketch -->
    <title>Logo (short) (white)</title>
    <desc>Created with Sketch.</desc>
    <g id="Official" stroke="none" stroke-width="1" fill="none" fill-rule="evenodd">
        <g id="Logo-(short)-(white)" transform="translate(-124.000000, -145.000000)" fill="#FFFFFF">
            <g transform="translate(112.000000, 145.000000)">
                <g id="Logo-icon" transform="translate(0.000000, 29.000000)">
                    <path d="M305,495 C257.503512,495 219,443.065031 219,379 C219,314.934969 257.503512,263 305,263 C352.496488,263 391,314.934969 391,379 C391,443.065031 352.496488,495 305,495 Z M304.873206,493.799743 C343.809281,493.799743 375.373206,447.685072 375.373206,390.799743 C375.373206,333.914413 343.809281,287.799743 304.873206,287.799743 C265.937131,287.799743 234.373206,333.914413 234.373206,390.799743 C234.373206,447.685072 265.937131,493.799743 304.873206,493.799743 Z" id="Inner-4" transform="translate(305.000000, 379.000000) rotate(60.000000) translate(-305.000000, -379.000000) "></path>
                    <path d="M314,533 C243.859837,533 187,462.484848 187,375.5 C187,288.515152 243.859837,218 314,218 C384.140163,218 441,288.515152 441,375.5 C441,462.484848 384.140163,533 314,533 Z M311.628201,532.871054 C368.51353,532.871054 414.628201,470.414777 414.628201,393.371054 C414.628201,316.327331 368.51353,253.871054 311.628201,253.871054 C254.742871,253.871054 208.628201,316.327331 208.628201,393.371054 C208.628201,470.414777 254.742871,532.871054 311.628201,532.871054 Z" id="Inner-3" transform="translate(314.000000, 375.500000) rotate(54.000000) translate(-314.000000, -375.500000) "></path>
                    <path d="M323.5,570 C223.812603,570 143,477.546801 143,363.5 C143,249.453199 223.812603,157 323.5,157 C423.187397,157 504,249.453199 504,363.5 C504,477.546801 423.187397,570 323.5,570 Z M323.660389,569.548303 C405.674675,569.548303 472.160389,487.616412 472.160389,386.548303 C472.160389,285.480194 405.674675,203.548303 323.660389,203.548303 C241.646104,203.548303 175.160389,285.480194 175.160389,386.548303 C175.160389,487.616412 241.646104,569.548303 323.660389,569.548303 Z" id="Inner-2" transform="translate(323.500000, 363.500000) rotate(41.000000) translate(-323.500000, -363.500000) "></path>
                    <path d="M297.957154,603.498636 C175.979355,585.641963 82.0477042,474.701928 82.0477042,340.509273 C82.0477042,193.877672 194.200374,75.0092728 332.547704,75.0092728 C470.895034,75.0092728 583.047704,193.877672 583.047704,340.509273 C583.047704,483.208706 476.829498,599.614004 343.619567,605.754583 C450.614011,597.542346 535.181508,495.482673 535.181508,370.787729 C535.181508,240.724671 443.176024,135.287729 329.681508,135.287729 C216.186992,135.287729 124.181508,240.724671 124.181508,370.787729 C124.181508,488.486568 199.525763,586.018821 297.957199,603.498644 Z" id="Inner-1" transform="translate(332.547704, 340.381928) rotate(22.000000) translate(-332.547704, -340.381928) "></path>
                </g>
                <path d="M204.893522,622.027851 C91.2359803,571.401401 12,457.453978 12,325 C12,145.507456 157.507456,0 337,0 C516.492544,0 662,145.507456 662,325 C662,457.453978 582.76402,571.401401 469.106478,622.027851 C549.106547,572.370456 603,478.999509 603,372 C603,212.941992 483.907743,84 337,84 C190.092257,84 71,212.941992 71,372 C71,478.999509 124.893453,572.370456 204.893531,622.027854 Z" id="Outer"></path>
                <g id="Text" transform="translate(708.000000, 29.000000)" font-family="FolkFestival, Folk Festival" font-weight="normal">
                    <text id="XVIII" opacity="0.95" font-size="216">
                        <tspan x="0.20703125" y="181">XVIII</tspan>
                    </text>
                    <text id="ENEPET" font-size="152">
                        <tspan x="9.3515625" y="363">ENEPET</tspan>
                    </text>
                    <text id="2019" font-size="219">
                        <tspan x="7.12890625" y="592">2019</tspan>
                    </text>
                </g>
            </g>
        </g>
    </g>
</svg>